<?xml version="1.0" standalone="no"?>
<!DOCTYPE svg PUBLIC "-//W3C//DTD SVG 20010904//EN"
 "http://www.w3.org/TR/2001/REC-SVG-20010904/DTD/svg10.dtd">
<svg version="1.0" xmlns="http://www.w3.org/2000/svg"
 width="640.000000pt" height="640.000000pt" viewBox="0 0 640.000000 640.000000"
 preserveAspectRatio="xMidYMid meet">

<g transform="translate(0.000000,640.000000) scale(0.100000,-0.100000)"
fill="#000000" stroke="none">
<path d="M3113 6263 c9 -2 23 -2 30 0 6 3 -1 5 -18 5 -16 0 -22 -2 -12 -5z"/>
<path d="M3138 6231 c11 -6 10 -10 -4 -15 -10 -4 -21 -1 -26 6 -8 11 -10 11
-15 0 -4 -9 -8 -10 -18 -2 -9 8 -15 8 -20 0 -3 -5 -15 -10 -26 -10 -10 0 -19
-6 -19 -12 0 -10 -2 -10 -8 0 -5 7 -19 10 -33 8 -13 -3 -33 -5 -43 -5 -11 -1
-17 -4 -13 -7 14 -14 -75 -76 -148 -103 -65 -24 -110 -55 -101 -69 3 -5 -6 -9
-20 -9 -15 0 -30 -7 -35 -14 -5 -8 -9 -10 -9 -6 0 12 -49 -25 -107 -81 -31
-31 -47 -53 -40 -56 7 -2 5 -5 -5 -5 -9 -1 -18 4 -20 9 -2 7 -22 5 -56 -6 -37
-12 -63 -29 -88 -58 -45 -52 -54 -64 -55 -71 -4 -28 -14 -45 -30 -50 -22 -7
-25 -21 -6 -28 6 -2 3 -3 -9 -1 -13 2 -35 -10 -60 -32 -21 -20 -51 -42 -67
-51 -20 -10 -27 -19 -22 -31 3 -9 3 -13 -1 -10 -6 7 -44 -33 -44 -46 0 -4 -14
-35 -31 -71 -29 -59 -31 -67 -19 -95 9 -23 15 -28 21 -18 6 9 9 6 9 -10 0 -22
1 -22 34 -8 43 18 53 10 23 -18 -13 -12 -21 -29 -19 -41 4 -16 2 -17 -10 -8
-11 10 -14 8 -15 -9 -2 -25 -22 -40 -42 -33 -10 4 -12 -2 -8 -25 7 -30 -24
-100 -44 -100 -5 0 -9 -10 -9 -21 0 -18 2 -19 15 -9 10 8 15 9 15 1 0 -6 -11
-13 -25 -17 -23 -6 -36 -24 -16 -24 4 0 11 -19 14 -41 3 -23 10 -45 15 -48 5
-3 8 -16 7 -28 -1 -13 1 -23 5 -23 4 0 13 -27 20 -60 8 -36 17 -59 24 -57 13
4 37 -69 29 -89 -3 -8 -13 -14 -22 -14 -13 -1 -13 -3 4 -16 14 -11 16 -18 8
-21 -7 -3 -13 -9 -13 -14 0 -6 5 -7 10 -4 16 10 11 -41 -5 -55 -13 -11 -13
-15 5 -30 13 -12 21 -30 20 -52 0 -75 12 -224 21 -238 7 -13 8 -12 9 3 0 39
18 13 24 -35 4 -29 7 -57 8 -63 1 -5 -2 -21 -7 -34 -6 -20 -5 -23 11 -17 12 4
9 -2 -9 -18 -15 -14 -25 -32 -22 -40 17 -53 14 -50 33 -32 46 41 57 -12 15
-71 -26 -35 -25 -43 9 -148 22 -66 35 -87 24 -40 -6 28 -5 29 9 11 14 -18 15
-18 26 10 6 16 13 44 16 62 6 32 23 45 23 17 0 -8 9 -15 20 -15 25 0 26 -15 3
-29 -15 -9 -16 -12 -4 -20 12 -8 12 -11 -1 -25 -18 -18 -32 -96 -23 -129 13
-45 34 -83 59 -106 31 -29 41 -22 37 27 -1 26 4 46 19 65 24 31 42 35 39 10
-1 -10 3 -36 9 -58 8 -26 8 -43 2 -49 -16 -16 -11 -34 18 -61 20 -19 24 -28
14 -33 -9 -6 -5 -18 18 -48 39 -52 40 -102 0 -117 -9 -3 -6 -6 10 -7 l25 -1
-23 -12 c-12 -7 -19 -17 -15 -21 4 -5 -5 -6 -22 -3 -28 5 -29 4 -10 -10 13 -9
31 -12 50 -8 23 4 34 0 53 -22 13 -16 21 -22 17 -16 -3 7 -8 25 -10 40 -8 57
-76 420 -90 483 -25 108 -17 408 13 480 7 18 8 26 23 110 6 36 15 70 19 75 5
6 10 35 11 65 2 35 9 61 21 75 11 11 27 29 37 40 10 11 26 32 36 48 9 15 22
27 28 27 5 0 25 16 44 35 18 19 42 39 53 45 12 7 17 16 13 27 -5 13 -1 15 20
11 27 -5 39 14 17 27 -5 3 -7 12 -4 20 4 8 10 12 15 9 5 -3 9 2 9 10 0 18 42
85 53 86 11 0 37 26 37 37 0 5 21 27 47 49 25 21 51 44 57 49 21 20 71 37 114
40 24 2 64 14 90 28 26 13 63 28 82 32 19 4 41 12 49 18 7 6 19 12 27 13 7 1
26 11 41 22 15 11 39 23 53 27 14 4 42 19 64 32 21 14 47 23 57 20 10 -3 20 1
23 9 3 8 14 14 25 14 11 0 25 9 31 20 l11 20 21 -20 c12 -11 43 -31 68 -43 48
-24 173 -115 222 -162 15 -14 49 -37 75 -51 55 -29 93 -62 93 -80 0 -7 13 -34
29 -60 17 -25 33 -60 37 -78 3 -17 14 -49 24 -71 30 -68 58 -175 75 -290 9
-66 29 -146 50 -200 37 -100 47 -130 44 -130 -1 0 3 -10 10 -23 32 -60 45
-139 45 -264 -1 -120 0 -126 18 -115 22 14 54 -2 52 -27 -1 -9 2 -16 8 -16 5
0 7 -4 3 -9 -8 -15 15 -25 28 -12 8 8 8 11 -1 11 -10 0 -10 5 -1 21 12 23 4
89 -11 89 -8 0 -30 40 -44 84 -4 10 -2 24 3 30 6 7 5 39 -3 86 l-13 75 29 35
c16 19 33 41 39 47 19 24 58 26 99 4 l39 -20 6 37 c4 20 9 50 12 65 2 15 -1
34 -7 42 -7 9 -10 28 -7 45 4 16 2 32 -2 35 -13 8 -1 44 20 58 27 19 40 62 28
89 -10 23 -10 23 -5 -1 5 -26 -18 -81 -34 -81 -13 0 -13 50 0 70 5 9 5 19 -2
27 -5 7 -7 21 -4 30 6 15 8 15 16 3 16 -26 11 -6 -9 33 -15 30 -17 45 -10 70
12 43 11 59 -3 55 -12 -4 -38 14 -38 26 0 3 9 3 20 1 24 -5 25 8 6 61 -7 22
-17 63 -21 92 -6 43 -4 52 8 52 9 0 19 -12 24 -27 5 -15 12 -23 15 -17 4 5 -7
28 -22 51 -24 35 -27 45 -16 55 9 10 11 29 6 66 -4 31 -2 56 4 62 17 17 44 11
60 -12 9 -12 16 -18 16 -13 -1 15 -26 45 -37 45 -6 0 -13 32 -17 72 -4 40 -11
75 -17 79 -6 3 -10 9 -10 13 1 3 1 7 0 9 -8 27 -3 39 22 54 16 10 29 21 29 25
0 13 -10 9 -38 -12 l-26 -21 -13 26 c-8 14 -11 29 -9 34 3 5 -1 8 -10 7 -9 0
-21 8 -28 19 -6 10 -21 27 -33 37 -18 15 -21 25 -16 55 4 26 3 34 -5 29 -7 -4
-12 -16 -12 -27 0 -19 -1 -19 -40 3 -38 22 -51 38 -31 38 17 0 42 32 37 46 -3
8 -1 25 5 38 8 17 8 29 0 42 -10 18 -10 17 -11 -4 0 -14 -4 -21 -11 -17 -7 5
-8 25 -4 54 5 39 3 48 -13 58 -15 9 -19 9 -18 0 0 -7 -3 -12 -9 -12 -5 0 -10
9 -11 20 -1 39 -15 65 -35 65 -10 0 -19 5 -19 11 0 6 -27 38 -60 71 -33 33
-60 63 -60 68 0 4 -7 11 -15 14 -19 7 30 -61 63 -88 16 -13 20 -21 12 -26 -16
-10 -55 31 -92 94 -57 96 -84 124 -120 122 -20 -1 -41 5 -53 17 -30 28 -145
75 -145 59 0 -4 -5 0 -11 8 -8 11 -12 12 -16 3 -5 -15 -34 -17 -49 -4 -5 4
-58 16 -119 25 -60 10 -135 22 -166 27 -30 5 -75 9 -100 8 -24 -1 -75 6 -112
15 -73 17 -152 22 -129 7z m-208 -90 c0 -14 -5 -18 -20 -14 -23 6 -26 19 -7
26 22 9 27 7 27 -12z m40 -6 c-12 -15 -30 -12 -30 6 0 5 10 9 21 9 18 0 19 -2
9 -15z m1110 -100 c19 -22 8 -25 -12 -3 -10 10 -14 18 -9 18 5 0 14 -7 21 -15z
m190 -256 c0 -11 -4 -17 -10 -14 -5 3 -10 13 -10 21 0 8 5 14 10 14 6 0 10 -9
10 -21z m-1990 -48 c0 -12 -20 -25 -27 -18 -7 7 6 27 18 27 5 0 9 -4 9 -9z
m-260 -251 c0 -5 -5 -10 -11 -10 -5 0 -7 5 -4 10 3 6 8 10 11 10 2 0 4 -4 4
-10z m2378 -38 c2 -15 -2 -22 -12 -22 -11 0 -16 9 -16 26 0 31 23 28 28 -4z
m48 -38 c-4 -12 -10 -14 -17 -7 -5 5 -7 17 -3 27 4 12 10 14 17 7 5 -5 7 -17
3 -27z m48 -53 c-1 -1 -12 3 -23 11 -12 8 -18 18 -14 21 6 7 43 -25 37 -32z
m45 -23 c5 -18 10 -27 10 -20 2 21 21 3 21 -19 0 -16 -3 -18 -17 -10 -41 24
-52 38 -46 59 8 31 21 27 32 -10z m6 -78 c10 -11 14 -20 9 -20 -5 0 -17 9 -27
20 -9 11 -13 20 -8 20 4 0 16 -9 26 -20z m52 -117 c-2 -16 -4 -5 -4 22 0 28 2
40 4 28 2 -13 2 -35 0 -50z m-77 -1033 c0 -5 -4 -10 -9 -10 -6 0 -13 5 -16 10
-3 6 1 10 9 10 9 0 16 -4 16 -10z m-130 -124 c0 -6 -7 -1 -15 10 -8 10 -15 23
-15 28 0 6 7 1 15 -10 8 -10 15 -23 15 -28z"/>
<path d="M4450 5591 c0 -5 5 -13 10 -16 6 -3 10 -2 10 4 0 5 -4 13 -10 16 -5
3 -10 2 -10 -4z"/>
<path d="M4740 5569 c0 -5 5 -7 10 -4 6 3 10 8 10 11 0 2 -4 4 -10 4 -5 0 -10
-5 -10 -11z"/>
<path d="M4460 5555 c0 -5 5 -17 10 -25 5 -8 10 -10 10 -5 0 6 -5 17 -10 25
-5 8 -10 11 -10 5z"/>
<path d="M4750 5493 c0 -18 2 -33 4 -33 9 0 13 39 5 51 -6 10 -9 4 -9 -18z"/>
<path d="M4741 5438 c0 -9 -4 -25 -7 -35 -5 -17 -5 -17 6 0 6 10 9 25 7 35 -4
15 -5 15 -6 0z"/>
<path d="M4546 5425 c-3 -8 -1 -15 3 -15 5 0 11 7 15 15 3 8 1 15 -3 15 -5 0
-11 -7 -15 -15z"/>
<path d="M4756 5363 c-6 -14 -5 -15 5 -6 7 7 10 15 7 18 -3 3 -9 -2 -12 -12z"/>
<path d="M4729 5323 c-13 -16 -12 -17 4 -4 16 13 21 21 13 21 -2 0 -10 -8 -17
-17z"/>
<path d="M4620 4917 c0 -7 14 -21 31 -31 l30 -18 -13 24 c-21 36 -48 51 -48
25z"/>
<path d="M4690 4839 c7 -11 14 -19 16 -16 7 7 -7 37 -17 37 -6 0 -5 -9 1 -21z"/>
<path d="M3920 4400 c0 -6 -11 -10 -25 -10 -14 0 -25 -4 -25 -10 0 -5 -4 -10
-10 -10 -5 0 -9 5 -7 11 1 6 -4 14 -11 16 -7 3 -10 -1 -7 -9 4 -10 -4 -13 -35
-10 -23 2 -58 -3 -80 -12 -22 -9 -57 -16 -78 -16 -35 0 -77 -20 -94 -44 -5 -7
-8 -4 -8 7 0 11 -8 17 -25 17 -14 0 -24 -5 -23 -12 2 -7 -7 -17 -19 -23 -13
-5 -23 -19 -23 -30 0 -11 -6 -31 -13 -45 -11 -21 -10 -30 7 -62 15 -29 26 -38
50 -40 19 -2 31 -9 31 -18 0 -10 9 -14 24 -12 20 2 22 0 11 -13 -13 -15 -8
-19 23 -16 12 2 17 -5 17 -23 0 -33 13 -36 155 -34 117 1 121 2 148 29 15 16
27 38 27 53 0 31 14 33 58 6 27 -17 32 -25 26 -43 -5 -17 -4 -20 6 -10 7 7 25
9 41 6 16 -3 29 -3 29 0 0 40 -81 104 -145 114 -40 6 -54 21 -34 34 36 23 121
-3 176 -53 34 -32 47 -17 18 22 -14 18 -25 40 -25 47 0 7 -8 13 -17 13 -17 1
-17 1 0 14 9 7 17 21 17 31 0 12 4 15 13 8 6 -5 26 -6 42 -3 l30 7 -32 8 c-22
5 -33 15 -37 31 -4 14 -10 23 -15 20 -4 -3 -7 8 -6 24 1 24 -2 30 -19 31 -33
2 -79 7 -108 13 -16 3 -28 1 -28 -4z m65 -19 c9 -16 -8 -20 -55 -14 -34 5 -40
8 -25 14 28 11 73 11 80 0z m-232 -334 c15 -23 15 -24 -9 -19 -15 3 -24 11
-24 23 0 26 15 24 33 -4z"/>
<path d="M4088 4363 c7 -3 16 -2 19 1 4 3 -2 6 -13 5 -11 0 -14 -3 -6 -6z"/>
<path d="M2699 4339 c-59 -4 -116 -12 -128 -18 -35 -19 -74 -78 -67 -104 3
-12 -1 -34 -8 -48 -15 -29 -14 -52 4 -94 13 -30 16 -38 18 -62 1 -7 12 -12 25
-12 16 1 18 2 5 6 -22 5 -24 23 -3 23 8 0 15 8 15 17 0 14 3 14 12 5 8 -8 9
-15 3 -20 -6 -4 -10 -27 -10 -52 0 -37 4 -46 25 -57 31 -16 77 -17 82 -2 3 8
15 9 38 4 l34 -7 -35 -19 c-29 -15 -31 -18 -11 -19 21 0 33 -20 11 -20 -5 0
-7 -5 -4 -10 4 -6 10 -8 15 -5 15 9 40 -7 40 -25 0 -19 21 -28 60 -25 45 4
154 38 168 51 13 14 31 18 64 15 24 -3 71 24 104 59 16 16 35 30 41 30 7 0 13
6 13 13 0 6 6 3 12 -8 12 -19 12 -19 19 5 4 14 7 41 8 60 1 40 36 116 46 100
7 -12 45 -14 45 -2 0 4 -7 17 -15 29 -14 19 -13 21 4 16 33 -9 14 31 -22 46
-18 8 -45 25 -62 38 -16 13 -34 27 -40 31 -5 4 -23 8 -40 10 -16 2 -45 10 -64
19 -87 40 -179 47 -402 32z m298 -331 c14 -16 13 -18 -11 -28 -43 -16 -46 -13
-28 36 11 31 18 40 21 28 1 -11 10 -27 18 -36z m-209 -30 c14 -16 14 -18 0
-18 -20 0 -74 28 -71 36 1 4 12 12 25 18 19 10 24 9 27 -4 1 -8 10 -23 19 -32z
m172 -37 c0 -4 -11 -6 -25 -3 -14 2 -32 -1 -40 -8 -8 -6 -19 -9 -24 -5 -6 3
-20 1 -31 -5 -16 -8 -20 -8 -20 4 0 14 19 18 113 24 15 1 27 -2 27 -7z m47 3
c-3 -3 -12 -4 -19 -1 -8 3 -5 6 6 6 11 1 17 -2 13 -5z m-217 -44 c3 0 -3 -5
-13 -11 -9 -6 -15 -14 -12 -20 9 -14 -5 -11 -20 5 -9 9 -10 17 -3 24 8 8 17 9
48 2z"/>
<path d="M2020 4112 c0 -18 5 -32 10 -32 6 0 8 11 4 28 -10 39 -14 40 -14 4z"/>
<path d="M4525 4030 c-29 -11 -51 -40 -38 -48 11 -7 34 -73 54 -154 6 -26 15
-45 20 -42 5 3 9 -5 9 -18 1 -17 6 -12 22 22 40 85 33 186 -15 230 -23 22 -23
22 -52 10z"/>
<path d="M3606 3976 c8 -22 156 -85 200 -86 50 -1 103 5 110 12 3 3 -13 9 -35
13 -23 4 -41 11 -41 16 0 5 -8 9 -17 9 -15 0 -14 2 3 15 21 16 20 16 -46 20
-25 2 -75 6 -112 9 -55 5 -66 3 -62 -8z"/>
<path d="M3270 3492 c0 -7 -9 -12 -20 -12 -11 0 -20 -4 -20 -10 0 -5 -8 -10
-19 -10 -10 0 -35 -7 -54 -15 -32 -13 -35 -18 -34 -50 1 -19 5 -35 10 -35 12
0 8 -21 -8 -36 -8 -9 -50 -30 -92 -49 -69 -30 -79 -32 -98 -19 -20 13 -24 13
-35 -1 -8 -9 -27 -23 -42 -31 -24 -12 -27 -18 -17 -30 8 -10 8 -14 0 -14 -6 0
-11 -13 -11 -29 0 -18 -6 -31 -15 -33 -13 -2 -13 -7 -2 -28 13 -26 15 -66 3
-77 -3 -3 -6 8 -6 27 0 27 -2 30 -14 21 -12 -10 -18 -29 -33 -101 -1 -8 -7
-41 -12 -72 -5 -31 -12 -62 -16 -69 -4 -6 -2 -15 5 -19 15 -9 6 -40 -11 -40
-6 0 -13 9 -16 20 -3 11 -9 20 -13 20 -4 0 -27 16 -51 35 -50 40 -55 41 -63
19 -7 -20 34 -76 51 -69 9 3 16 -6 19 -23 8 -40 41 -81 53 -64 6 10 8 5 8 -15
0 -15 3 -37 8 -48 8 -19 8 -19 -12 -2 -30 26 -61 19 -33 -9 11 -11 16 -72 6
-100 -4 -14 -1 -26 9 -34 17 -14 20 -40 5 -40 -5 0 -10 4 -10 10 0 5 -6 7 -14
4 -9 -3 -20 10 -31 38 -10 24 -18 46 -17 51 4 16 -25 6 -73 -26 -38 -24 -50
-39 -50 -57 0 -15 -5 -24 -12 -23 -7 2 -13 -4 -13 -12 0 -8 6 -12 14 -9 9 4
14 -3 14 -20 0 -14 -4 -26 -9 -26 -5 0 -9 -7 -9 -16 0 -8 -7 -23 -16 -32 -12
-12 -15 -27 -10 -59 3 -25 2 -43 -4 -43 -12 0 -50 -77 -50 -99 1 -9 10 0 21
19 15 27 18 29 13 10 -3 -14 -10 -29 -15 -34 -5 -6 -9 -19 -10 -30 0 -21 0
-21 -10 -1 -6 14 -8 1 -5 -44 4 -58 2 -66 -21 -87 -14 -13 -30 -24 -36 -24 -5
0 -7 -7 -3 -15 3 -9 0 -15 -10 -15 -11 0 -14 6 -10 16 3 9 2 12 -4 9 -6 -4 -9
-14 -8 -23 2 -12 -5 -18 -22 -20 -25 -4 -109 -60 -110 -74 0 -4 -24 -31 -53
-60 -29 -29 -59 -62 -67 -73 -19 -26 -154 -83 -250 -104 -19 -5 -48 -14 -64
-20 -23 -9 -26 -14 -16 -26 9 -10 9 -15 1 -15 -6 0 -11 5 -11 10 0 16 -35 12
-96 -11 -36 -14 -80 -21 -120 -21 -35 0 -64 -4 -64 -8 0 -10 -95 -32 -150 -34
-25 -1 -51 -5 -58 -10 -7 -4 -20 -2 -29 6 -14 11 -16 11 -9 0 6 -10 2 -13 -15
-11 -13 2 -29 0 -35 -3 -6 -4 -44 -12 -85 -18 -192 -29 -508 -149 -654 -250
-55 -38 -163 -154 -180 -194 -46 -111 -140 -378 -191 -544 -33 -109 -34 -120
-34 -273 l0 -159 3200 0 3200 0 0 383 0 382 -30 55 c-16 30 -29 63 -30 73 0
27 -144 171 -208 209 -146 86 -358 176 -482 205 -41 9 -77 20 -80 24 -3 4 -25
10 -50 14 -39 6 -122 35 -225 80 -16 7 -41 16 -55 18 -49 11 -100 32 -100 42
0 5 -23 17 -50 27 -28 9 -50 12 -50 7 0 -5 -5 -9 -11 -9 -5 0 -7 5 -4 10 3 6
-3 10 -14 10 -11 0 -23 5 -26 10 -3 5 -17 10 -29 10 -13 0 -35 9 -49 20 -15
12 -29 21 -32 21 -10 -1 -42 12 -103 41 -56 27 -64 28 -78 14 -23 -23 -28 -21
-65 29 -19 24 -40 45 -47 45 -7 0 -11 -4 -7 -9 3 -5 1 -12 -4 -15 -10 -6 -31
17 -51 57 -7 15 -19 27 -26 27 -18 0 -37 -38 -31 -61 3 -10 1 -22 -4 -25 -5
-3 -10 7 -11 23 -2 46 -3 50 -14 64 -23 30 -27 60 -28 212 -1 117 -4 160 -14
166 -7 4 -10 15 -6 25 5 12 1 19 -14 23 -27 7 -35 44 -18 78 12 24 12 32 -8
75 -11 27 -29 51 -38 53 -10 3 -18 12 -18 21 0 9 -6 13 -15 10 -8 -4 -26 7
-43 26 -40 43 -43 30 -35 -142 5 -106 3 -139 -5 -134 -8 5 -12 0 -12 -14 0
-12 -4 -19 -9 -16 -4 3 -6 -5 -4 -19 3 -13 0 -30 -6 -37 -39 -45 -79 -107 -74
-112 8 -7 -58 -66 -74 -66 -17 0 -17 -55 0 -69 8 -6 17 -8 20 -4 4 3 7 -3 7
-15 0 -23 -16 -39 -22 -22 -2 7 -12 8 -26 3 -13 -5 -22 -11 -21 -13 7 -13 -35
-120 -47 -120 -7 0 -16 -5 -20 -12 -5 -7 -2 -9 8 -5 12 4 14 0 10 -16 -7 -29
-63 -119 -69 -113 -6 6 -34 -20 -34 -31 0 -4 -9 -11 -20 -15 -12 -5 -19 -17
-19 -35 0 -21 -3 -24 -9 -14 -7 11 -16 1 -35 -41 -14 -31 -26 -64 -26 -72 0
-9 -4 -16 -10 -16 -5 0 -10 -7 -10 -16 0 -8 -4 -13 -9 -9 -5 3 -9 38 -8 79 1
41 -1 72 -5 69 -5 -2 -8 22 -8 54 0 275 -6 413 -17 425 -10 9 -13 9 -13 0 0
-15 -26 -16 -36 -1 -3 6 1 18 10 27 14 14 19 15 39 3 20 -13 21 -13 8 3 -10
12 -23 16 -42 12 -19 -3 -29 0 -33 10 -5 12 -1 14 15 9 13 -5 19 -3 15 3 -3 5
1 16 10 23 9 7 31 37 50 66 19 30 41 53 51 54 14 0 13 2 -4 9 -19 8 -21 13
-13 37 14 47 22 63 31 63 5 0 9 7 9 15 0 8 4 15 9 15 5 0 9 14 9 31 -1 24 10
42 53 86 30 31 61 64 71 73 9 10 16 34 16 55 0 30 -3 35 -16 29 -10 -4 -33 -8
-52 -9 -19 0 -46 -8 -60 -17 -39 -24 -77 -30 -84 -13 -6 17 -46 21 -46 5 0 -7
-6 -7 -19 0 -11 5 -27 7 -37 3 -10 -4 -20 0 -25 10 -10 16 -43 13 -68 -7 -11
-8 -15 -8 -18 2 -5 14 -33 16 -33 2 0 -20 -62 -10 -94 15 -22 17 -40 23 -51
18 -14 -5 -16 -3 -11 8 4 8 1 6 -7 -4 -17 -21 -72 -26 -89 -9 -7 7 -29 12 -50
12 -21 0 -38 5 -38 10 0 6 -10 15 -22 21 -68 30 -138 99 -138 134 0 12 -10 30
-22 38 -19 13 -20 16 -5 16 18 1 25 21 6 21 -5 0 -7 5 -4 10 4 6 11 7 17 4 8
-5 9 8 6 39 -5 43 -3 47 31 75 29 23 43 28 74 24 23 -3 37 0 37 7 0 6 19 11
45 11 33 0 47 5 54 19 6 10 8 21 5 23 -11 12 78 17 127 8 66 -13 127 -11 154
5 25 15 146 45 179 45 13 0 26 -6 29 -12 2 -8 22 -13 50 -13 31 0 47 -4 47
-13 0 -12 43 -34 58 -29 13 4 64 -42 57 -53 -3 -5 1 -13 10 -16 10 -4 27 4 47
22 29 28 30 31 25 100 -4 53 -11 80 -30 108 -14 20 -27 40 -29 44 -2 4 -18 18
-37 31 -27 20 -35 21 -43 10 -7 -11 -11 -11 -15 -1 -2 6 -11 12 -19 12 -8 0
-14 6 -15 13 0 6 -4 3 -9 -8 -5 -11 -9 -14 -9 -6 -1 11 -4 11 -16 1 -12 -10
-15 -10 -15 3 0 31 -41 29 -53 -3 -4 -10 -6 -8 -6 8 -1 12 -5 22 -11 22 -5 0
-27 16 -47 35 -20 19 -41 35 -45 35 -4 0 -8 7 -8 15 0 8 8 15 19 15 10 0 31
10 46 22 l27 21 -38 24 c-55 33 -87 30 -134 -13 -22 -20 -40 -32 -40 -26 0 6
-17 14 -37 18 -21 4 -41 11 -44 16 -3 5 -17 10 -30 11 -13 0 -32 10 -41 21
-10 10 -18 14 -18 8z m250 -102 c0 -12 -8 -12 -35 0 -18 8 -17 9 8 9 15 1 27
-3 27 -9z m0 -208 c0 11 5 15 15 12 8 -4 12 -10 9 -15 -3 -5 0 -9 5 -9 6 0 11
4 11 8 0 4 22 13 49 18 28 6 48 7 45 2 -3 -4 2 -8 10 -8 9 0 16 -6 16 -14 0
-8 3 -22 7 -32 6 -15 2 -15 -24 4 -20 14 -34 18 -38 12 -9 -14 3 -30 23 -30
11 -1 8 -6 -11 -16 -15 -8 -32 -12 -37 -9 -5 3 -11 1 -14 -3 -3 -5 -33 -10
-67 -10 -61 -1 -90 11 -82 34 3 10 -23 19 -73 26 -6 1 -16 9 -22 19 -10 16 -7
19 21 24 17 3 55 6 82 7 41 3 52 -1 62 -17 11 -17 12 -18 13 -3z m-594 -339
c-10 -10 -19 5 -10 18 6 11 8 11 12 0 2 -7 1 -15 -2 -18z m-426 -517 c0 -2 -7
-7 -16 -10 -8 -3 -12 -2 -9 4 6 10 25 14 25 6z m1770 -320 c0 -2 -7 -7 -16
-10 -8 -3 -12 -2 -9 4 6 10 25 14 25 6z m458 -394 c2 -7 -2 -10 -12 -6 -9 3
-16 11 -16 16 0 13 23 5 28 -10z m-91 -24 c-3 -8 -6 -5 -6 6 -1 11 2 17 5 13
3 -3 4 -12 1 -19z m-874 -327 c14 -14 18 -38 22 -133 3 -76 10 -129 21 -157
16 -41 16 -44 -3 -69 -16 -22 -29 -28 -69 -30 -42 -2 -53 1 -74 23 -23 24 -23
27 -10 78 15 60 14 180 -2 206 -15 24 19 97 44 95 10 -1 15 3 12 8 -10 16 38
-2 59 -21z m-103 -451 c0 -5 -4 -10 -10 -10 -5 0 -10 5 -10 10 0 6 5 10 10 10
6 0 10 -4 10 -10z m10 -62 c0 -36 -4 -35 -14 5 -4 16 -2 27 4 27 5 0 10 -14
10 -32z m1 -81 c-8 -8 -11 -7 -11 4 0 20 13 34 18 19 3 -7 -1 -17 -7 -23z"/>
<path d="M3686 1251 c-10 -15 6 -150 19 -168 15 -20 45 -11 45 13 0 13 -3 14
-13 5 -22 -17 -27 -3 -27 75 0 67 -10 98 -24 75z"/>
<path d="M3684 956 c-32 -24 -7 -51 47 -51 35 0 44 4 47 19 8 39 -55 60 -94
32z"/>
<path d="M2190 3413 c0 -15 48 -64 54 -55 6 10 -2 21 -31 46 -13 11 -23 15
-23 9z"/>
<path d="M4348 3233 c7 -3 16 -2 19 1 4 3 -2 6 -13 5 -11 0 -14 -3 -6 -6z"/>
<path d="M3208 2973 c7 -3 16 -2 19 1 4 3 -2 6 -13 5 -11 0 -14 -3 -6 -6z"/>
<path d="M2522 2948 c5 -15 28 -23 28 -10 0 5 -7 13 -16 16 -10 4 -14 1 -12
-6z"/>
<path d="M3252 2924 c10 -10 20 -16 22 -13 3 3 -5 11 -17 18 -21 13 -21 12 -5
-5z"/>
<path d="M3150 2845 c-10 -12 -10 -22 1 -52 15 -38 17 -39 92 -73 54 -23 122
-21 166 7 13 8 40 17 60 18 50 5 67 9 82 22 8 6 22 12 32 14 20 4 24 23 4 25
-28 2 -31 5 -17 14 12 8 11 10 -5 10 -12 0 -26 5 -32 11 -14 14 -334 19 -326
4 3 -5 0 -4 -8 3 -17 16 -34 15 -49 -3z"/>
<path d="M2620 2734 c0 -8 5 -12 10 -9 6 4 8 11 5 16 -9 14 -15 11 -15 -7z"/>
<path d="M2671 2554 c0 -11 3 -14 6 -6 3 7 2 16 -1 19 -3 4 -6 -2 -5 -13z"/>
<path d="M3920 2519 c-17 -30 -6 -34 14 -4 9 14 12 25 7 25 -6 0 -15 -9 -21
-21z"/>
<path d="M2470 2389 c0 -5 5 -7 10 -4 6 3 10 8 10 11 0 2 -4 4 -10 4 -5 0 -10
-5 -10 -11z"/>
</g>
</svg>
